<?xml version="1.0" encoding="UTF-8"?>
<!DOCTYPE svg PUBLIC "-//W3C//DTD SVG 1.1//EN" "http://www.w3.org/Graphics/SVG/1.1/DTD/svg11.dtd">
<svg version="1.1" xmlns="http://www.w3.org/2000/svg" xmlns:xlink="http://www.w3.org/1999/xlink">
  <g id="Fleury">
    <path d="M3.175,51.021 L-3.175,51.021 L-3.175,11.338 L-3.175,11.338 L-3.175,4.842 L-5.183,2.834 L-8.141,2.834 C-8.222,4.672 -9.591,5.78 -11.328,5.955 C-13.093,5.955 -14.523,4.525 -14.523,2.76 L-14.523,-2.475 C-14.523,-4.239 -13.093,-5.67 -11.328,-5.67 C-9.725,-5.597 -8.336,-4.489 -8.169,-2.835 L-5.669,-2.835 L-3.175,-5.33 L-3.175,-7.711 L-3.255,-7.711 C-3.823,-9.665 -5.155,-10.685 -7.143,-10.885 C-8.011,-10.798 -7.696,-10.909 -8.133,-10.725 L-0,-28.346 L8.133,-10.725 C7.696,-10.909 8.011,-10.798 7.143,-10.885 L6.343,-10.805 C4.265,-10.09 4.061,-9.634 3.255,-7.711 L3.175,-7.711 L3.175,-5.33 L5.669,-2.835 L8.169,-2.835 C8.303,-4.556 9.756,-5.511 11.328,-5.67 C13.093,-5.67 14.523,-4.239 14.523,-2.475 L14.523,2.76 C14.523,4.525 13.093,5.955 11.328,5.955 C9.513,5.884 8.317,4.588 8.14,2.834 L5.183,2.834 L3.175,4.842 L3.175,51.021 z" fill-opacity="0" stroke="#000000" stroke-width="0.25"/>
  </g>
</svg>
