<?xml version="1.0" encoding="UTF-8"?>
<!DOCTYPE svg PUBLIC "-//W3C//DTD SVG 1.1//EN" "http://www.w3.org/Graphics/SVG/1.1/DTD/svg11.dtd">
<svg version="1.1" xmlns="http://www.w3.org/2000/svg" xmlns:xlink="http://www.w3.org/1999/xlink" x="0" y="0" width="15.527" height="17.004" viewBox="0, 0, 15.527, 17.004">
  <g id="Calque_5" transform="translate(7.763, 8.502)">
    <path d="M-0.226,-5.439 L0.606,-4.191 C1.315,-3.128 1.315,-3.128 3.441,0.061 C5.567,3.25 5.567,3.25 6.276,4.313 L7.312,5.868 L-7.763,5.868 L-6.727,4.313 L-1.058,-4.191 L-0.226,-5.439 z M-0.226,-1.833 L-4.026,3.868 L3.575,3.868 C2.246,1.874 2.845,2.773 1.777,1.171 C0.641,-0.534 1.308,0.467 -0.226,-1.833 z" fill="#FF0000"/>
    <path d="M2.911,-4.513 L4.575,-3.403 L-3.362,8.502 L-5.026,7.393 L2.911,-4.513 z" fill="#FF0000"/>
    <path d="M4.83,-8.502 C6.45,-8.502 7.763,-7.189 7.763,-5.569 C7.763,-3.949 6.45,-2.636 4.83,-2.636 C3.21,-2.636 1.897,-3.949 1.897,-5.569 C1.897,-7.189 3.21,-8.502 4.83,-8.502 z M4.83,-6.502 C4.315,-6.502 3.897,-6.084 3.897,-5.569 C3.897,-5.054 4.315,-4.636 4.83,-4.636 C5.346,-4.636 5.763,-5.054 5.763,-5.569 C5.763,-6.084 5.346,-6.502 4.83,-6.502 z" fill="#FF0000"/>
  </g>
</svg>
