<?xml version="1.0" encoding="UTF-8"?>
<!DOCTYPE svg PUBLIC "-//W3C//DTD SVG 1.1//EN" "http://www.w3.org/Graphics/SVG/1.1/DTD/svg11.dtd">
<svg version="1.1" xmlns="http://www.w3.org/2000/svg" xmlns:xlink="http://www.w3.org/1999/xlink" x="0" y="0" width="19.008" height="19.008" viewBox="0, 0, 19.008, 19.008">
  <g id="Calque_8" transform="translate(9.504, 9.504)">
    <path d="M-2.835,-9.504 C-2.282,-9.504 -1.835,-9.056 -1.835,-8.504 L-1.835,8.504 C-1.835,9.056 -2.282,9.504 -2.835,9.504 C-3.387,9.504 -3.835,9.056 -3.835,8.504 L-3.835,-8.504 C-3.835,-9.056 -3.387,-9.504 -2.835,-9.504 z" fill="#000000"/>
    <path d="M8.44,-9.502 C9.28,-9.222 9,-9.462 9.398,-8.951 C9.645,-8.457 9.445,-7.857 8.951,-7.61 L-8.057,0.894 C-8.551,1.141 -9.151,0.941 -9.398,0.447 C-9.645,-0.047 -9.445,-0.648 -8.951,-0.895 L8.057,-9.398 L8.44,-9.502 z" fill="#000000"/>
    <path d="M-8.44,-0.998 L-8.057,-0.895 L8.951,7.609 C9.445,7.856 9.645,8.457 9.398,8.951 C9.151,9.445 8.551,9.645 8.057,9.398 L-8.951,0.894 C-9.445,0.647 -9.645,0.047 -9.398,-0.447 C-9,-0.958 -9.28,-0.718 -8.44,-0.998 z" fill="#000000"/>
    <path d="M5.669,-1 C6.222,-1 6.669,-0.552 6.669,-0 C6.669,0.552 6.222,1 5.669,1 L2.835,1 C2.282,1 1.835,0.552 1.835,-0 C1.835,-0.552 2.282,-1 2.835,-1 L5.669,-1 z" fill="#000000"/>
  </g>
</svg>
