<?xml version="1.0" encoding="UTF-8"?>
<!DOCTYPE svg PUBLIC "-//W3C//DTD SVG 1.1//EN" "http://www.w3.org/Graphics/SVG/1.1/DTD/svg11.dtd">
<svg version="1.1" xmlns="http://www.w3.org/2000/svg" xmlns:xlink="http://www.w3.org/1999/xlink" x="0" y="0" width="21.26" height="18.332" viewBox="0, 0, 21.26, 18.332">
  <g id="Calque_10" transform="translate(10.63, 7.669)">
    <path d="M-5.87,-3.971 C-5.87,-0.729 -3.242,1.899 -0,1.899 C3.242,1.899 5.87,-0.729 5.87,-3.971 L7.799,-3.971 C7.799,0.336 4.307,3.828 -0,3.828 C-4.307,3.828 -7.799,0.336 -7.799,-3.971 L-5.87,-3.971 z" fill="#000000"/>
    <path d="M6.834,-4.936 C7.367,-4.936 7.799,-4.504 7.799,-3.971 C7.799,-3.438 7.367,-3.007 6.834,-3.007 L-6.835,-3.007 C-7.367,-3.007 -7.799,-3.438 -7.799,-3.971 C-7.799,-4.504 -7.367,-4.936 -6.835,-4.936 L6.834,-4.936 z" fill="#000000"/>
    <path d="M-0,3.266 C0.533,3.266 0.964,3.698 0.964,4.23 L0.964,9.698 C0.964,10.231 0.533,10.662 -0,10.662 C-0.533,10.662 -0.964,10.231 -0.964,9.698 L-0.964,4.23 C-0.964,3.698 -0.533,3.266 -0,3.266 z" fill="#000000"/>
    <path d="M-0,-7.669 C0.533,-7.669 0.964,-7.238 0.964,-6.705 L0.964,-1.237 C0.964,-0.705 0.533,-0.273 -0,-0.273 C-0.533,-0.273 -0.964,-0.705 -0.964,-1.237 L-0.964,-6.705 C-0.964,-7.238 -0.533,-7.669 -0,-7.669 z" fill="#000000"/>
    <path d="M5.712,0.919 L6.162,0.934 L6.481,1.146 L10.347,5.012 C10.724,5.389 10.724,6 10.347,6.376 C9.971,6.753 9.36,6.753 8.984,6.376 L5.117,2.51 C4.741,2.134 4.741,1.523 5.117,1.146 C5.473,0.904 5.275,0.983 5.712,0.919 z" fill="#000000"/>
    <path d="M-5.887,0.919 L-5.436,0.934 L-5.117,1.146 C-4.741,1.523 -4.741,2.134 -5.117,2.51 L-8.983,6.376 C-9.36,6.753 -9.971,6.753 -10.347,6.376 C-10.724,6 -10.724,5.389 -10.347,5.012 L-6.481,1.146 C-6.126,0.904 -6.323,0.983 -5.887,0.919 z" fill="#000000"/>
  </g>
</svg>
