<?xml version="1.0" encoding="UTF-8"?>
<!DOCTYPE svg PUBLIC "-//W3C//DTD SVG 1.1//EN" "http://www.w3.org/Graphics/SVG/1.1/DTD/svg11.dtd">
<svg version="1.1" xmlns="http://www.w3.org/2000/svg" xmlns:xlink="http://www.w3.org/1999/xlink" x="0" y="0" width="16.173" height="16.173" viewBox="0, 0, 16.173, 16.173">
  <g id="Calque_3" transform="translate(8.087, 8.087)">
    <path d="M-0,-5.252 C2.901,-5.252 5.252,-2.901 5.252,-0 C5.252,2.901 2.901,5.252 -0,5.252 C-2.901,5.252 -5.252,2.901 -5.252,-0 C-5.252,-2.901 -2.901,-5.252 -0,-5.252 z M-0,-3.252 C-1.796,-3.252 -3.252,-1.796 -3.252,-0 C-3.252,1.796 -1.796,3.252 -0,3.252 C1.796,3.252 3.252,1.796 3.252,-0 C3.252,-1.796 1.796,-3.252 -0,-3.252 z" fill="#FF0000"/>
    <path d="M-2.362,-8.087 C-1.932,-8.087 -1.55,-7.811 -1.414,-7.403 L3.083,6.087 L7.087,6.087 C7.639,6.087 8.087,6.534 8.087,7.087 C8.087,7.639 7.639,8.087 7.087,8.087 L2.362,8.087 C1.932,8.087 1.55,7.811 1.413,7.403 L-3.083,-6.087 L-7.087,-6.087 C-7.639,-6.087 -8.087,-6.534 -8.087,-7.087 C-8.087,-7.639 -7.639,-8.087 -7.087,-8.087 L-2.362,-8.087 z" fill="#FF0000"/>
  </g>
</svg>
