<?xml version="1.0" encoding="UTF-8"?>
<!DOCTYPE svg PUBLIC "-//W3C//DTD SVG 1.1//EN" "http://www.w3.org/Graphics/SVG/1.1/DTD/svg11.dtd">
<svg version="1.1" xmlns="http://www.w3.org/2000/svg" xmlns:xlink="http://www.w3.org/1999/xlink" x="0" y="0" width="18.195" height="18.195" viewBox="0, 0, 18.195, 18.195">
  <g id="Calque_6" transform="translate(9.098, 9.098)">
    <path d="M-0,-9.098 C5.025,-9.098 9.098,-5.025 9.098,-0 C9.098,5.025 5.025,9.098 -0,9.098 C-5.025,9.098 -9.098,5.025 -9.098,-0 C-9.098,-5.025 -5.025,-9.098 -0,-9.098 z M-0,-7.098 C-3.92,-7.098 -7.098,-3.92 -7.098,-0 C-7.098,3.92 -3.92,7.098 -0,7.098 C3.92,7.098 7.098,3.92 7.098,-0 C7.098,-3.92 3.92,-7.098 -0,-7.098 z" fill="#FF0000"/>
    <path d="M-0,-8.342 L0.866,-6.842 L6.471,2.867 L7.337,4.367 L-7.338,4.367 L-6.471,2.867 L-0.866,-6.842 L-0,-8.342 z M-0,-4.342 L-3.874,2.367 L3.873,2.367 L-0,-4.342 z" fill="#FF0000"/>
  </g>
</svg>
