<?xml version="1.0" encoding="UTF-8"?>
<!DOCTYPE svg PUBLIC "-//W3C//DTD SVG 1.1//EN" "http://www.w3.org/Graphics/SVG/1.1/DTD/svg11.dtd">
<svg version="1.1" xmlns="http://www.w3.org/2000/svg" xmlns:xlink="http://www.w3.org/1999/xlink" x="0" y="0" width="18.471" height="17.567" viewBox="0, 0, 18.471, 17.567">
  <g id="Calque_7" transform="translate(9.236, 7.725)">
    <path d="M5.708,-7.725 L5.365,-5.728 L4.618,-1.369 L7.785,1.718 L9.235,3.132 L7.23,3.424 L2.854,4.06 L0.897,8.025 L-0,9.842 L-0.897,8.025 L-2.854,4.06 L-7.23,3.424 L-9.236,3.132 L-7.785,1.718 L-4.618,-1.369 L-5.365,-5.728 L-5.708,-7.725 L-3.914,-6.782 L-0,-4.724 L3.914,-6.782 L5.708,-7.725 z M3.052,-4.069 L0.465,-2.709 L-0,-2.464 L-0.465,-2.709 L-3.052,-4.069 L-2.558,-1.189 L-2.469,-0.671 L-2.845,-0.304 L-4.938,1.736 L-2.046,2.156 L-1.526,2.232 L-1.293,2.703 L-0,5.323 L1.293,2.703 L1.526,2.232 L2.046,2.156 L4.938,1.736 L2.845,-0.304 L2.469,-0.671 L2.558,-1.189 L3.052,-4.069 z" fill="#FF0000"/>
  </g>
</svg>
