<?xml version="1.0" encoding="UTF-8"?>
<!DOCTYPE svg PUBLIC "-//W3C//DTD SVG 1.1//EN" "http://www.w3.org/Graphics/SVG/1.1/DTD/svg11.dtd">
<svg version="1.1" xmlns="http://www.w3.org/2000/svg" xmlns:xlink="http://www.w3.org/1999/xlink" x="0" y="0" width="19.008" height="14.756" viewBox="0, 0, 19.008, 14.756">
  <g id="Calque_2" transform="translate(9.504, 7.378)">
    <path d="M-4.252,-7.378 C-3.822,-7.378 -3.439,-7.102 -3.303,-6.694 L0,3.216 L3.303,-6.694 C3.439,-7.102 3.822,-7.378 4.252,-7.378 L8.504,-7.378 C9.056,-7.378 9.504,-6.93 9.504,-6.378 C9.504,-5.826 9.056,-5.378 8.504,-5.378 L4.973,-5.378 L0.949,6.694 C0.645,7.606 -0.645,7.606 -0.949,6.694 L-4.973,-5.378 L-8.504,-5.378 C-9.056,-5.378 -9.504,-5.826 -9.504,-6.378 C-9.504,-6.93 -9.056,-7.378 -8.504,-7.378 L-4.252,-7.378 z" fill="#FF0000"/>
    <path d="M5.669,-3.126 C6.222,-3.126 6.669,-2.678 6.669,-2.126 C6.669,-1.574 6.222,-1.126 5.669,-1.126 L-5.669,-1.126 C-6.222,-1.126 -6.669,-1.574 -6.669,-2.126 C-6.669,-2.678 -6.222,-3.126 -5.669,-3.126 L5.669,-3.126 z" fill="#FF0000"/>
  </g>
</svg>
