<?xml version="1.0" encoding="UTF-8"?>
<!DOCTYPE svg PUBLIC "-//W3C//DTD SVG 1.1//EN" "http://www.w3.org/Graphics/SVG/1.1/DTD/svg11.dtd">
<svg version="1.1" xmlns="http://www.w3.org/2000/svg" xmlns:xlink="http://www.w3.org/1999/xlink" x="0" y="0" width="16.173" height="16.173" viewBox="0, 0, 16.173, 16.173">
  <g id="Calque_9" transform="translate(8.087, 8.087)">
    <path d="M7.087,-8.087 C7.639,-8.087 8.087,-7.639 8.087,-7.087 C8.087,-6.534 7.639,-6.087 7.087,-6.087 C3.725,-6.087 1,-3.361 1,-0 C1,3.362 3.725,6.087 7.087,6.087 C7.639,6.087 8.087,6.534 8.087,7.087 C8.087,7.639 7.639,8.087 7.087,8.087 C2.62,8.087 -1,4.466 -1,-0 C-1,-4.466 2.62,-8.087 7.087,-8.087 z" fill="#000000"/>
    <path d="M-7.087,-8.087 C-2.621,-8.087 1,-4.466 1,-0 C1,4.466 -2.621,8.087 -7.087,8.087 C-7.639,8.087 -8.087,7.639 -8.087,7.087 C-8.087,6.534 -7.639,6.087 -7.087,6.087 C-3.725,6.087 -1,3.362 -1,-0 C-1,-3.361 -3.725,-6.087 -7.087,-6.087 C-7.639,-6.087 -8.087,-6.534 -8.087,-7.087 C-8.087,-7.639 -7.639,-8.087 -7.087,-8.087 z" fill="#000000"/>
    <path d="M2.362,-1 C2.914,-1 3.362,-0.552 3.362,0 C3.362,0.552 2.914,1 2.362,1 L-2.362,1 C-2.915,1 -3.362,0.552 -3.362,0 C-3.362,-0.552 -2.915,-1 -2.362,-1 L2.362,-1 z" fill="#000000"/>
  </g>
</svg>
